<?xml version="1.0" standalone="no"?>
<!DOCTYPE svg PUBLIC "-//W3C//DTD SVG 20010904//EN"
 "http://www.w3.org/TR/2001/REC-SVG-20010904/DTD/svg10.dtd">
<svg version="1.0" xmlns="http://www.w3.org/2000/svg"
 width="16.000000pt" height="16.000000pt" viewBox="0 0 16.000000 16.000000"
 preserveAspectRatio="xMidYMid meet">
<metadata>
Created by potrace 1.11, written by Peter Selinger 2001-2013
</metadata>
<g transform="translate(0.000000,16.000000) scale(0.006154,-0.006154)"
fill="#000000" stroke="none">
<path d="M1037 2496 c-47 -17 -71 -38 -91 -81 -23 -47 -24 -591 -2 -633 20
-38 244 -257 283 -276 39 -19 90 -21 132 -3 37 16 266 239 289 282 23 44 23
585 0 630 -21 40 -56 70 -97 84 -51 17 -465 14 -514 -3z"/>
<path d="M185 1659 c-36 -11 -65 -35 -91 -74 -17 -26 -19 -51 -21 -268 -1
-180 2 -246 12 -270 14 -35 58 -79 90 -92 11 -5 149 -9 307 -10 244 -2 293 1
323 14 19 9 91 72 160 140 96 95 127 133 135 162 12 44 6 94 -17 129 -30 46
-247 251 -282 266 -27 11 -90 14 -310 13 -152 0 -289 -5 -306 -10z"/>
<path d="M1785 1651 c-24 -11 -92 -72 -167 -149 -132 -134 -134 -137 -129
-215 2 -48 25 -78 153 -204 97 -95 133 -123 164 -131 55 -14 582 -8 614 6 38
17 56 34 78 74 19 33 21 54 22 270 1 227 0 235 -23 278 -16 30 -37 51 -66 66
-41 22 -51 23 -324 23 -255 1 -286 -1 -322 -18z"/>
<path d="M1231 1099 c-12 -5 -81 -66 -152 -136 -93 -91 -132 -137 -140 -162
-6 -23 -9 -143 -7 -323 3 -326 2 -321 89 -366 43 -22 50 -23 290 -20 l246 3
37 29 c66 50 69 66 69 381 1 242 -2 284 -16 312 -21 39 -236 252 -280 276 -34
18 -98 22 -136 6z"/>
</g>
</svg>
